<svg width="16" height="16" viewBox="0 0 16 16" fill="none" xmlns="http://www.w3.org/2000/svg">
<path d="M6.66667 13.3334C6.66661 13.4572 6.70108 13.5787 6.7662 13.6841C6.83131 13.7895 6.92451 13.8746 7.03534 13.93L8.36867 14.5967C8.47033 14.6475 8.58329 14.6715 8.69683 14.6663C8.81036 14.6612 8.9207 14.6271 9.01735 14.5673C9.11401 14.5075 9.19378 14.424 9.24908 14.3247C9.30438 14.2254 9.33338 14.1137 9.33333 14V9.33336C9.33348 9.00295 9.45631 8.68436 9.678 8.43936L14.4933 3.11337C14.5796 3.01774 14.6364 2.89916 14.6567 2.77196C14.6771 2.64476 14.6601 2.51439 14.6079 2.39662C14.5557 2.27885 14.4706 2.17872 14.3627 2.10834C14.2548 2.03796 14.1288 2.00034 14 2.00004H2.00001C1.87108 2.00009 1.74493 2.03752 1.63684 2.1078C1.52876 2.17808 1.44336 2.27819 1.39101 2.39601C1.33866 2.51384 1.3216 2.64431 1.34189 2.77163C1.36219 2.89895 1.41896 3.01766 1.50534 3.11337L6.322 8.43936C6.54369 8.68436 6.66652 9.00295 6.66667 9.33336V13.3334Z" stroke="#0F172A" stroke-opacity="0.7" stroke-width="1.32" stroke-linecap="round" stroke-linejoin="round"/>
</svg>
