<svg width="40" height="40" viewBox="0 0 40 40" fill="none" xmlns="http://www.w3.org/2000/svg">
<rect x="0.5" y="0.5" width="39" height="39" rx="11.5" fill="white"/>
<rect x="0.5" y="0.5" width="39" height="39" rx="11.5" stroke="white"/>
<path d="M18.0592 13.4467C18.1051 12.9636 18.3294 12.5151 18.6884 12.1886C19.0474 11.8621 19.5152 11.6812 20.0004 11.6812C20.4856 11.6812 20.9534 11.8621 21.3124 12.1886C21.6714 12.5151 21.8958 12.9636 21.9417 13.4467C21.9693 13.7587 22.0716 14.0595 22.2401 14.3236C22.4086 14.5877 22.6382 14.8074 22.9096 14.9639C23.1809 15.1205 23.486 15.2094 23.7989 15.223C24.1119 15.2367 24.4235 15.1748 24.7075 15.0425C25.1484 14.8423 25.6481 14.8134 26.1092 14.9613C26.5703 15.1092 26.9599 15.4233 27.2021 15.8426C27.4443 16.2619 27.5219 16.7563 27.4197 17.2297C27.3175 17.703 27.0428 18.1214 26.6492 18.4034C26.3928 18.5832 26.1836 18.8222 26.0391 19.1C25.8946 19.3779 25.8192 19.6864 25.8192 19.9996C25.8192 20.3128 25.8946 20.6213 26.0391 20.8992C26.1836 21.177 26.3928 21.416 26.6492 21.5959C27.0428 21.8778 27.3175 22.2962 27.4197 22.7695C27.5219 23.2429 27.4443 23.7373 27.2021 24.1566C26.9599 24.5759 26.5703 24.8901 26.1092 25.038C25.6481 25.1858 25.1484 25.1569 24.7075 24.9567C24.4235 24.8244 24.1119 24.7625 23.7989 24.7762C23.486 24.7899 23.1809 24.8787 22.9096 25.0353C22.6382 25.1918 22.4086 25.4115 22.2401 25.6756C22.0716 25.9397 21.9693 26.2405 21.9417 26.5525C21.8958 27.0356 21.6714 27.4842 21.3124 27.8106C20.9534 28.1371 20.4856 28.318 20.0004 28.318C19.5152 28.318 19.0474 28.1371 18.6884 27.8106C18.3294 27.4842 18.1051 27.0356 18.0592 26.5525C18.0316 26.2404 17.9292 25.9394 17.7607 25.6753C17.5922 25.4111 17.3625 25.1914 17.091 25.0348C16.8196 24.8782 16.5144 24.7894 16.2013 24.7758C15.8882 24.7622 15.5765 24.8242 15.2925 24.9567C14.8516 25.1569 14.3519 25.1858 13.8908 25.038C13.4297 24.8901 13.0401 24.5759 12.7979 24.1566C12.5557 23.7373 12.4781 23.2429 12.5803 22.7695C12.6825 22.2962 12.9572 21.8778 13.3508 21.5959C13.6072 21.416 13.8164 21.177 13.9609 20.8992C14.1054 20.6213 14.1808 20.3128 14.1808 19.9996C14.1808 19.6864 14.1054 19.3779 13.9609 19.1C13.8164 18.8222 13.6072 18.5832 13.3508 18.4034C12.9577 18.1212 12.6835 17.703 12.5816 17.23C12.4796 16.757 12.5572 16.263 12.7992 15.844C13.0411 15.4249 13.4303 15.1108 13.8909 14.9627C14.3516 14.8146 14.8508 14.8431 15.2917 15.0425C15.5756 15.1748 15.8873 15.2367 16.2003 15.223C16.5132 15.2094 16.8183 15.1205 17.0896 14.9639C17.361 14.8074 17.5906 14.5877 17.7591 14.3236C17.9275 14.0595 18.0299 13.7587 18.0575 13.4467" stroke="#0F172A" stroke-opacity="0.65" stroke-width="1.66667" stroke-linecap="round" stroke-linejoin="round"/>
<path d="M20 22.5C21.3807 22.5 22.5 21.3807 22.5 20C22.5 18.6193 21.3807 17.5 20 17.5C18.6193 17.5 17.5 18.6193 17.5 20C17.5 21.3807 18.6193 22.5 20 22.5Z" stroke="#0F172A" stroke-opacity="0.65" stroke-width="1.66667" stroke-linecap="round" stroke-linejoin="round"/>
</svg>
