<svg width="40" height="40" viewBox="0 0 40 40" fill="none" xmlns="http://www.w3.org/2000/svg">
<rect x="0.5" y="0.5" width="39" height="39" rx="11.5" fill="white"/>
<rect x="0.5" y="0.5" width="39" height="39" rx="11.5" stroke="white"/>
<path d="M22.5 11.6667H15C14.558 11.6667 14.134 11.8423 13.8215 12.1548C13.5089 12.4674 13.3333 12.8913 13.3333 13.3333V26.6667C13.3333 27.1087 13.5089 27.5326 13.8215 27.8452C14.134 28.1577 14.558 28.3333 15 28.3333H25C25.442 28.3333 25.8659 28.1577 26.1785 27.8452C26.4911 27.5326 26.6667 27.1087 26.6667 26.6667V15.8333L22.5 11.6667Z" stroke="#0F172A" stroke-opacity="0.65" stroke-width="1.66667" stroke-linecap="round" stroke-linejoin="round"/>
<path d="M21.6667 11.6667V15C21.6667 15.442 21.8423 15.8659 22.1548 16.1785C22.4674 16.4911 22.8913 16.6667 23.3333 16.6667H26.6667" stroke="#0F172A" stroke-opacity="0.65" stroke-width="1.66667" stroke-linecap="round" stroke-linejoin="round"/>
<path d="M16.6667 25V24.1667" stroke="#0F172A" stroke-opacity="0.65" stroke-width="1.66667" stroke-linecap="round" stroke-linejoin="round"/>
<path d="M20 25V20" stroke="#0F172A" stroke-opacity="0.65" stroke-width="1.66667" stroke-linecap="round" stroke-linejoin="round"/>
<path d="M23.3333 25V22.5" stroke="#0F172A" stroke-opacity="0.65" stroke-width="1.66667" stroke-linecap="round" stroke-linejoin="round"/>
</svg>
