<svg width="501" height="103" viewBox="0 0 501 103" fill="none" xmlns="http://www.w3.org/2000/svg">
<path d="M501 75.2306C501 78.2855 499.786 81.2153 497.626 83.3755C495.466 85.5357 492.536 86.7492 489.481 86.7492C486.426 86.7492 483.497 85.5357 481.336 83.3755C479.176 81.2153 477.963 78.2855 477.963 75.2306C477.963 72.1757 479.176 69.2459 481.336 67.0857C483.497 64.9256 486.426 63.712 489.481 63.712C492.536 63.712 495.466 64.9256 497.626 67.0857C499.786 69.2459 501 72.1757 501 75.2306Z" fill="#DC2626"/>
<path d="M160.037 44.572C160.037 46.0847 159.739 47.5825 159.16 48.98C158.581 50.3775 157.733 51.6473 156.663 52.7169C155.594 53.7865 154.324 54.635 152.926 55.2139C151.529 55.7927 150.031 56.0907 148.518 56.0907C147.006 56.0907 145.508 55.7927 144.11 55.2139C142.713 54.635 141.443 53.7865 140.373 52.7169C139.304 51.6473 138.455 50.3775 137.877 48.98C137.298 47.5825 137 46.0847 137 44.572C137 43.0594 137.298 41.5616 137.877 40.1641C138.455 38.7666 139.304 37.4968 140.373 36.4272C141.443 35.3576 142.713 34.5091 144.11 33.9302C145.508 33.3514 147.006 33.0534 148.518 33.0534C150.031 33.0534 151.529 33.3514 152.926 33.9302C154.324 34.5091 155.594 35.3576 156.663 36.4272C157.733 37.4968 158.581 38.7666 159.16 40.1641C159.739 41.5616 160.037 43.0594 160.037 44.572Z" fill="#DC2626"/>
<path d="M261.948 91.0582C261.948 94.1131 260.735 97.0429 258.575 99.2031C256.414 101.363 253.485 102.577 250.43 102.577C247.375 102.577 244.445 101.363 242.285 99.2031C240.125 97.0429 238.911 94.1131 238.911 91.0582C238.911 88.0033 240.125 85.0735 242.285 82.9133C244.445 80.7531 247.375 79.5396 250.43 79.5396C253.485 79.5396 256.414 80.7531 258.575 82.9133C260.735 85.0735 261.948 88.0033 261.948 91.0582Z" fill="#DC2626"/>
<path d="M23.0372 11.5186C23.0372 14.5735 21.8237 17.5033 19.6635 19.6635C17.5033 21.8237 14.5735 23.0372 11.5186 23.0372C8.46369 23.0372 5.53388 21.8237 3.37373 19.6635C1.21357 17.5033 0 14.5735 0 11.5186C0 8.46369 1.21357 5.53388 3.37373 3.37373C5.53388 1.21357 8.46369 0 11.5186 0C14.5735 0 17.5033 1.21357 19.6635 3.37373C21.8237 5.53388 23.0372 8.46369 23.0372 11.5186Z" fill="#DC2626"/>
</svg>
