<svg width="34" height="46" viewBox="0 0 34 46" fill="none" xmlns="http://www.w3.org/2000/svg">
<path d="M19.2334 23.1133C18.3051 22.5762 17.4628 21.8852 16.5215 21.3715C15.2255 20.6648 14.0469 19.7757 12.7614 19.056C12.3207 18.8083 12.0834 18.3363 11.8748 17.8461C11.6819 17.395 11.8096 16.9699 11.7653 16.7118C11.9478 15.9452 12.3963 15.5775 12.8892 15.2672C13.1239 15.1186 13.4342 15.0873 13.661 14.9308C14.6962 14.2085 15.8123 13.6218 16.9205 12.9386C17.2099 12.9751 17.5567 12.9491 17.8409 13.069C18.6023 13.3845 19.296 13.8435 20.146 14.1877C20.4328 14.1538 20.824 14.2711 21.2021 14.0468C23.2594 12.9491 25.309 11.5618 27.3559 10.5423C28.1747 10.7274 28.8944 10.9386 29.116 11.8043C28.5736 12.7248 28.5867 12.7561 27.8566 13.0768C27.2725 13.335 26.8292 13.7053 26.5241 14.3128C26.5241 14.5162 26.5032 14.7691 26.5293 15.0195C26.558 15.2802 26.6362 15.5332 26.7066 15.8643C26.9935 16.1016 27.3351 16.3832 27.6167 16.6179H29.1265C29.4159 16.4823 29.6558 16.4145 29.8383 16.2763C30.5606 15.7235 31.3872 15.348 32.1617 14.8891C32.9048 14.4484 32.9909 14.4432 33.4237 13.7548C33.7549 13.2307 34.0339 12.6701 33.9922 12.0103C33.9687 11.6557 34.0078 11.2985 33.9817 10.9439C33.9531 10.5631 33.8175 10.2085 33.6975 9.84607C33.4602 9.12899 32.8214 8.78479 32.3885 8.25285C31.5306 7.893 30.7953 7.32456 29.9896 6.87345C29.1838 6.42234 28.4198 5.89561 27.6115 5.43929C25.6584 4.31543 23.7705 3.07684 21.8279 1.93212C20.9465 1.42104 20.1017 0.847374 19.1864 0.388444C18.8944 0.24242 18.5841 0.0624984 18.2712 0.0338152C17.2151 -0.060057 16.1747 0.0181707 15.2229 0.568366C14.5267 0.96993 13.7966 1.31934 13.1317 1.76524C11.588 2.7196 9.81747 3.7522 8.23729 4.66745C7.11864 5.34542 6.01825 6.05207 4.897 6.72221C3.73403 7.41582 2.56063 8.09379 1.42634 8.83694C0.967405 9.13942 0.709256 9.55663 0.380704 9.93994C0.216427 10.1329 0.00521624 11.0325 0.00521624 11.3819C0.00521624 14.7092 0.0104302 18.0364 0 21.3637C0 21.7652 0.138202 22.1094 0.273795 22.4719C0.584094 23.3115 1.28553 23.7652 1.95828 24.2476C2.30508 24.498 2.68318 24.7013 3.04563 24.9308C3.65059 25.3115 4.24772 25.7131 4.86571 26.0625C5.6897 26.5292 6.47458 27.0612 7.30117 27.5305C8.23468 28.0599 9.07431 28.7535 10.0156 29.2672C11.0169 29.8148 11.9609 30.4484 12.9335 31.0403C14.193 31.8069 15.4342 32.6075 16.678 33.3897C17.8853 33.4862 18.8422 33.069 19.5124 32.1016C19.5124 31.953 19.5046 31.8513 19.5124 31.7496C19.5854 30.9934 19.2881 30.4771 18.5867 30.1094C18.1591 29.8852 17.7627 29.6114 17.3637 29.3402C16.0808 28.4667 14.7275 27.7079 13.4368 26.85C10.6675 25.0925 7.8618 23.3819 5.07953 21.6427C4.67536 21.395 4.32594 21.1133 4.11994 20.6075V12.3415C4.33116 11.906 4.59452 11.5749 5.01956 11.3819C5.29857 11.2542 5.54889 11.0664 5.81225 10.9047C6.74315 10.3311 7.66623 9.74437 8.60495 9.18375C9.2751 8.78479 9.97653 8.4432 10.6467 8.04424C11.6063 7.47058 12.5424 6.8578 13.4967 6.27632C14.0834 5.91908 14.6858 5.59053 15.2803 5.24633C15.8514 4.91517 16.3755 4.48753 17.0561 4.38062C17.1186 4.37019 17.176 4.31021 17.1916 4.29978C17.3742 4.35715 17.5098 4.4432 17.6401 4.43538C17.9087 4.41713 18.0913 4.58922 18.2999 4.69092C18.4928 4.78218 18.6519 4.94124 18.837 5.05337C20.4772 6.03903 22.1356 7.03512 23.7653 8.02338C23.0326 8.54229 22.2164 8.93081 21.455 9.4106C21.0873 9.66615 20.6467 9.91647 20.1669 9.76784C19.6975 9.62182 19.2386 9.45233 18.8136 9.17071C17.9218 8.5814 17.2308 8.35455 16.1199 8.98036C15.382 9.39496 14.6284 9.78349 13.9218 10.2476C13.3116 10.6492 12.678 11.0169 12.0365 11.3663C10.9857 11.9399 10 12.6283 8.96219 13.2281C8.54237 13.4706 8.22685 13.7783 8.00782 14.1981C7.88787 14.4276 7.77053 14.6596 7.62712 14.9386V18.1538C7.62712 18.9073 7.84876 19.4654 8.22164 20.2711C8.55019 20.9882 9.12386 21.4158 9.73403 21.8096C10.5293 22.3206 11.3924 22.7326 12.1773 23.2594C14.4068 24.7144 16.678 26.0912 18.9491 27.481L21.3168 24.3832C20.6258 23.9556 19.9374 23.5227 19.2334 23.1159V23.1133Z" fill="black"/>
<path d="M21.8931 29.6039C22.3885 30.2401 22.8266 31.3692 22.3286 32.3523C22.0678 32.8686 21.6219 33.1267 21.1656 33.3953C20.5137 33.7812 19.854 34.1567 19.2047 34.5478C18.3286 35.0746 17.4576 35.6065 16.5867 36.1411C15.8775 36.5765 15.1656 37.0094 14.4668 37.4605C13.7262 37.9377 13.5698 37.9038 12.7901 37.4318C11.8592 36.8686 10.9544 36.2636 9.9635 35.7969C9.08997 35.3875 8.31552 35.4396 7.52022 35.9976C6.99349 36.3679 6.42765 36.733 5.72361 36.5844C5.44199 36.4044 5.16298 36.2271 4.93612 36.0811C4.79532 35.8047 4.67798 35.5752 4.56846 35.3562C4.78749 34.9494 5.03 34.6209 5.45242 34.4044C5.90092 34.175 6.29206 33.836 6.70927 33.5465C6.69884 33.5074 6.6858 33.4683 6.67537 33.4266C6.73795 33.2493 6.83182 33.0746 6.8579 32.892C6.99349 31.9898 6.19819 30.8503 5.00653 30.806C4.77706 30.7982 4.55021 30.806 4.32074 30.806C3.50197 30.806 2.7901 31.0694 2.09388 31.51C1.33248 31.9898 0.83704 32.6548 0.508488 33.4422C0.156467 34.2897 0.318135 35.2023 0.338996 36.0915C0.618005 36.2636 0.30249 36.6548 0.607574 36.819C0.855292 37.5778 1.31422 38.1854 1.89571 38.7278C2.6154 39.4005 3.48111 39.6926 4.42765 39.7943C5.11865 39.8673 5.76272 39.6352 6.40418 39.4188C7.33247 39.1033 8.22686 39.0641 9.09518 39.6404C9.84616 40.1385 10.631 40.587 11.4003 41.0589C12.3312 41.6326 13.2595 42.2115 14.193 42.7825C14.9622 43.2545 15.7366 43.7186 16.5085 44.1854C17.2803 44.6521 18.0261 45.171 18.8292 45.5726C19.8722 46.0941 20.9439 45.995 21.9218 45.5856C22.9961 45.1371 23.9609 44.4879 24.9492 43.8829C25.7392 43.4005 26.5241 42.9077 27.3194 42.4305C27.9087 42.0785 28.5137 41.7551 29.103 41.4031C30.0209 40.8555 30.9022 40.2428 31.8488 39.7473C32.8814 39.2076 33.4837 38.3731 33.8383 37.3119C33.9374 37.012 34 36.7121 34 36.3836C33.987 33.6143 33.9844 30.8477 34 28.0785C34 27.6535 33.8488 27.2727 33.781 26.8686C33.7392 26.6182 33.648 26.3601 33.5124 26.1437C33.1082 25.4944 32.5632 24.9937 31.8722 24.6313C31.1995 24.2793 30.5684 23.8516 29.9192 23.4553C29.1291 22.9729 28.3416 22.4827 27.5489 22.0029C26.9205 21.6222 26.2842 21.2519 25.6558 20.8686C24.9257 20.4253 24.2138 19.9455 23.4655 19.5335C22.3859 18.9364 21.3716 18.2323 20.2973 17.6248C19.0587 16.9259 17.8722 16.128 16.897 15.5179C15.8462 15.2258 15.2386 15.7056 14.618 16.042C14.2999 16.2141 14.0861 16.5844 13.8931 16.793V17.7525C14.206 18.2558 14.6206 18.5452 15.0978 18.7747C15.4394 18.939 15.7497 19.1658 16.073 19.3666C16.8814 19.8699 17.6845 20.3784 18.4981 20.8738C19.1056 21.2441 19.7288 21.5857 20.3338 21.9559C21.3273 22.5635 22.3129 23.1893 23.3064 23.7969C23.8722 24.1437 24.4537 24.4644 25.0196 24.8112C26.0339 25.4344 27.0378 26.0681 28.0495 26.6939C28.472 26.9546 28.9309 27.1684 29.3273 27.4657C29.7653 27.7969 30.0287 28.2636 30.0287 28.8373C30.0287 31.1476 30.0287 33.4579 30.0287 35.8621C29.7314 36.175 29.4498 36.6365 29.0404 36.8686C28.2529 37.3119 27.5176 37.8334 26.7327 38.2767C26.1565 38.6026 25.5724 38.9155 25.0091 39.2649C23.8774 39.9637 22.7771 40.7095 21.5932 41.3223C21.4237 41.4109 21.3273 41.5752 21.116 41.6456C20.704 41.7838 20.2999 41.789 19.9035 41.7682C19.09 41.2701 18.2921 40.7799 17.3977 40.2297C17.781 40.0055 18.0678 39.8464 18.3442 39.6743C19.1734 39.1606 19.9948 38.6339 20.8266 38.1254C21.4316 37.7525 22.0495 37.4005 22.6597 37.0355C23.4133 36.587 24.1695 36.1411 24.9179 35.6821C25.4863 35.3353 25.9922 34.9259 26.2269 34.261C26.2894 34.0837 26.4172 33.9325 26.5267 33.7473C26.5267 32.4305 26.5189 31.085 26.5319 29.7369C26.5346 29.364 26.4928 29.0068 26.3729 28.6574C26.12 27.9116 25.7679 27.1945 25.1134 26.7512C23.9739 25.9768 22.7797 25.2832 21.6063 24.5609C21.5098 24.5009 20.0104 23.5883 19.914 23.5309L18.9492 27.4814C19.1969 27.63 19.4446 27.7786 19.6949 27.922C20.4954 28.3862 21.3064 28.8581 21.8931 29.6091V29.6039Z" fill="white"/>
</svg>
